<svg xmlns="http://www.w3.org/2000/svg" viewBox="0 0 512 512" fill="none">
  <defs>
    <linearGradient id="mainGrad" x1="0%" y1="0%" x2="100%" y2="100%">
      <stop offset="0%" style="stop-color:#4ade80" />
      <stop offset="50%" style="stop-color:#22c55e" />
      <stop offset="100%" style="stop-color:#0ea5e9" />
    </linearGradient>

    <linearGradient id="strokeGrad" x1="0%" y1="0%" x2="100%" y2="0%">
      <stop offset="0%" style="stop-color:#4ade80; stop-opacity:0.6" />
      <stop offset="100%" style="stop-color:#0ea5e9; stop-opacity:0.6" />
    </linearGradient>

    <filter id="glow" x="-20%" y="-20%" width="140%" height="140%">
      <feGaussianBlur stdDeviation="12" result="blur" />
      <feComposite in="SourceGraphic" in2="blur" operator="over" />
    </filter>
  </defs>

  <rect x="16" y="16" width="480" height="480" rx="120" fill="#050505" stroke="url(#strokeGrad)" stroke-width="8" />

  <g filter="url(#glow)">
    
    <path d="M256 106.6C167.6 106.6 96 171.3 96 250.7c0 29.6 9.9 57.1 27 79.9-4.7 18.2-16.6 42.6-17.6 44.5-2.8 5.3 2.1 11.4 7.8 9.7 29.5-8.8 62-23.8 67.5-26.4 22.9 13.6 50 21.6 79.3 21.6 88.4 0 160-64.7 160-144.1S344.4 106.6 256 106.6z" 
          fill="url(#mainGrad)" opacity="0.15" />
    
    <path d="M256 106.6C167.6 106.6 96 171.3 96 250.7c0 29.6 9.9 57.1 27 79.9-4.7 18.2-16.6 42.6-17.6 44.5-2.8 5.3 2.1 11.4 7.8 9.7 29.5-8.8 62-23.8 67.5-26.4 22.9 13.6 50 21.6 79.3 21.6 88.4 0 160-64.7 160-144.1S344.4 106.6 256 106.6z" 
          fill="none" stroke="url(#mainGrad)" stroke-width="24" stroke-linecap="round" stroke-linejoin="round"/>

    <path d="M280 180 L220 250 L250 250 L230 330 L290 260 L260 260 L280 180 Z" 
          fill="#ffffff" />
  </g>

  <circle cx="380" cy="140" r="24" fill="#4ade80" stroke="#050505" stroke-width="8">
    <animate attributeName="opacity" values="1;0.5;1" dur="2s" repeatCount="indefinite" />
  </circle>

</svg>